<svg width="24" height="24" viewBox="0 0 24 24" fill="none" xmlns="http://www.w3.org/2000/svg">
<g opacity="0.35">
<g clip-path="url(#clip0_15_2781)">
<path d="M9.29973 12.3317C9.29973 10.3284 8.60928 8.46129 7.38398 7.0026C6.57684 6.04959 5.40016 7.12902 6.00309 7.90699C7.17976 9.38515 7.62709 10.6202 7.62709 12.3317C7.62709 14.0432 7.17976 15.2782 6.00309 16.7564C5.40989 17.5246 6.58657 18.5943 7.38398 17.651C8.60928 16.202 9.29973 14.3349 9.29973 12.3317ZM14.5802 12.3317C14.5802 9.27818 13.6174 6.4094 11.8865 4.08522C11.1085 3.04469 9.75678 4.04632 10.4861 4.99933C12.0712 7.08039 12.9173 9.61849 12.9173 12.3317C12.9173 15.0448 12.0712 17.583 10.4861 19.664C9.75678 20.617 11.1085 21.6187 11.8865 20.5684C13.6174 18.2443 14.5802 15.3852 14.5802 12.3317ZM19.8801 12.3317C19.8801 8.21818 18.5964 4.38668 16.3111 1.21647C15.611 0.234284 14.1814 1.09005 14.94 2.11113C17.0697 5.03824 18.2075 8.56826 18.2075 12.3317C18.2075 16.0951 17.06 19.6154 14.94 22.5425C14.2009 23.5539 15.5818 24.4582 16.3111 23.4469C18.5964 20.267 19.8801 16.4355 19.8801 12.3317Z" fill="white"/>
</g>
</g>
<defs>
<clipPath id="clip0_15_2781">
<rect width="14.0427" height="23.1244" fill="white" transform="translate(5.83716 0.764648)"/>
</clipPath>
</defs>
</svg>
