<svg width="39" height="36" viewBox="0 0 39 36" fill="none" xmlns="http://www.w3.org/2000/svg">
<g style="mix-blend-mode:luminosity" opacity="0.75">
<path d="M36.4639 0.529419L21.6978 11.3812L24.4436 4.98588L36.4639 0.529419Z" fill="#E17726" stroke="#DEDEDE" stroke-opacity="0.75" stroke-width="0.503271" stroke-linecap="round" stroke-linejoin="round"/>
<path d="M2.40381 0.529419L17.0385 11.4825L14.4241 4.98588L2.40381 0.529419Z" fill="#E27625" stroke="#DEDEDE" stroke-opacity="0.75" stroke-width="0.503271" stroke-linecap="round" stroke-linejoin="round"/>
<path d="M31.1474 25.6912L27.2185 31.6524L35.6313 33.953L38.0412 25.8214L31.1474 25.6912Z" fill="#E27625" stroke="#DEDEDE" stroke-opacity="0.75" stroke-width="0.503271" stroke-linecap="round" stroke-linejoin="round"/>
<path d="M0.841064 25.8214L3.23637 33.953L11.6345 31.6524L7.72026 25.6912L0.841064 25.8214Z" fill="#E27625" stroke="#DEDEDE" stroke-opacity="0.75" stroke-width="0.503271" stroke-linecap="round" stroke-linejoin="round"/>
<path d="M11.1816 15.6206L8.84473 19.1221L17.1699 19.4983L16.8924 10.5999L11.1816 15.6206Z" fill="#E27625" stroke="#DEDEDE" stroke-opacity="0.75" stroke-width="0.503271" stroke-linecap="round" stroke-linejoin="round"/>
<path d="M27.686 15.6206L21.8876 10.4985L21.6978 19.4983L30.0229 19.1221L27.686 15.6206Z" fill="#E27625" stroke="#DEDEDE" stroke-opacity="0.75" stroke-width="0.503271" stroke-linecap="round" stroke-linejoin="round"/>
<path d="M11.6345 31.6523L16.6734 29.236L12.3356 25.8792L11.6345 31.6523Z" fill="#E27625" stroke="#DEDEDE" stroke-opacity="0.75" stroke-width="0.503271" stroke-linecap="round" stroke-linejoin="round"/>
<path d="M22.1941 29.236L27.2184 31.6523L26.5319 25.8792L22.1941 29.236Z" fill="#E27625" stroke="#DEDEDE" stroke-opacity="0.75" stroke-width="0.503271" stroke-linecap="round" stroke-linejoin="round"/>
<path d="M27.2179 31.6525L22.1936 29.2362L22.6026 32.4773L22.5587 33.8518L27.2179 31.6525Z" fill="#D5BFB2" stroke="#DEDEDE" stroke-opacity="0.75" stroke-width="0.503271" stroke-linecap="round" stroke-linejoin="round"/>
<path d="M11.634 31.6524L16.3078 33.8517L16.2786 32.4771L16.6729 29.2361L11.634 31.6524Z" fill="#D5BFB2" stroke="#DEDEDE" stroke-opacity="0.75" stroke-width="0.503271" stroke-linecap="round" stroke-linejoin="round"/>
<path d="M16.3959 23.7377L12.2188 22.5223L15.1691 21.1766L16.3959 23.7377Z" fill="#233447" stroke="#DEDEDE" stroke-opacity="0.75" stroke-width="0.503271" stroke-linecap="round" stroke-linejoin="round"/>
<path d="M22.4717 23.7377L23.6985 21.1766L26.6635 22.5223L22.4717 23.7377Z" fill="#233447" stroke="#DEDEDE" stroke-opacity="0.75" stroke-width="0.503271" stroke-linecap="round" stroke-linejoin="round"/>
<path d="M11.6347 31.6524L12.365 25.6912L7.72046 25.8214L11.6347 31.6524Z" fill="#CC6228" stroke="#DEDEDE" stroke-opacity="0.75" stroke-width="0.503271" stroke-linecap="round" stroke-linejoin="round"/>
<path d="M26.5032 25.6912L27.2188 31.6524L31.1477 25.8214L26.5032 25.6912Z" fill="#CC6228" stroke="#DEDEDE" stroke-opacity="0.75" stroke-width="0.503271" stroke-linecap="round" stroke-linejoin="round"/>
<path d="M30.0229 19.1222L21.6978 19.4984L22.4718 23.7378L23.6987 21.1768L26.6636 22.5224L30.0229 19.1222Z" fill="#CC6228" stroke="#DEDEDE" stroke-opacity="0.75" stroke-width="0.503271" stroke-linecap="round" stroke-linejoin="round"/>
<path d="M12.2186 22.5224L15.1689 21.1768L16.3958 23.7378L17.1699 19.4984L8.84473 19.1222L12.2186 22.5224Z" fill="#CC6228" stroke="#DEDEDE" stroke-opacity="0.75" stroke-width="0.503271" stroke-linecap="round" stroke-linejoin="round"/>
<path d="M8.84473 19.1222L12.3354 25.8792L12.2186 22.5224L8.84473 19.1222Z" fill="#E27525" stroke="#DEDEDE" stroke-opacity="0.75" stroke-width="0.503271" stroke-linecap="round" stroke-linejoin="round"/>
<path d="M26.6637 22.5224L26.5322 25.8792L30.0229 19.1222L26.6637 22.5224Z" fill="#E27525" stroke="#DEDEDE" stroke-opacity="0.75" stroke-width="0.503271" stroke-linecap="round" stroke-linejoin="round"/>
<path d="M17.1698 19.4984L16.3958 23.7378L17.3743 28.7441L17.5934 22.1462L17.1698 19.4984Z" fill="#E27525" stroke="#DEDEDE" stroke-opacity="0.75" stroke-width="0.503271" stroke-linecap="round" stroke-linejoin="round"/>
<path d="M21.6975 19.4984L21.2886 22.1318L21.4931 28.7441L22.4716 23.7378L21.6975 19.4984Z" fill="#E27525" stroke="#DEDEDE" stroke-opacity="0.75" stroke-width="0.503271" stroke-linecap="round" stroke-linejoin="round"/>
<path d="M22.4717 23.7377L21.4932 28.744L22.1942 29.236L26.5321 25.8792L26.6635 22.5223L22.4717 23.7377Z" fill="#F5841F" stroke="#DEDEDE" stroke-opacity="0.75" stroke-width="0.503271" stroke-linecap="round" stroke-linejoin="round"/>
<path d="M12.2188 22.5223L12.3356 25.8792L16.6734 29.236L17.3745 28.744L16.3959 23.7377L12.2188 22.5223Z" fill="#F5841F" stroke="#DEDEDE" stroke-opacity="0.75" stroke-width="0.503271" stroke-linecap="round" stroke-linejoin="round"/>
<path d="M22.5589 33.8515L22.6028 32.477L22.223 32.1586H16.6437L16.2786 32.477L16.3078 33.8515L11.634 31.6522L13.2698 32.9834L16.5853 35.255H22.2668L25.5969 32.9834L27.2181 31.6522L22.5589 33.8515Z" fill="#C0AC9D" stroke="#DEDEDE" stroke-opacity="0.75" stroke-width="0.503271" stroke-linecap="round" stroke-linejoin="round"/>
<path d="M22.1945 29.236L21.4935 28.744H17.3747L16.6736 29.236L16.2793 32.477L16.6444 32.1587H22.2237L22.6035 32.477L22.1945 29.236Z" fill="#161616" stroke="#DEDEDE" stroke-opacity="0.75" stroke-width="0.503271" stroke-linecap="round" stroke-linejoin="round"/>
<path d="M37.0917 12.0902L38.3332 6.1L36.4637 0.529419L22.1941 11.0195L27.6858 15.6206L35.4413 17.8633L37.1501 15.8811L36.4052 15.3457L37.5883 14.275L36.6827 13.5805L37.8658 12.6834L37.0917 12.0902Z" fill="#763E1A" stroke="#DEDEDE" stroke-opacity="0.75" stroke-width="0.503271" stroke-linecap="round" stroke-linejoin="round"/>
<path d="M0.534424 6.1L1.7905 12.0902L0.987194 12.6834L2.18485 13.5805L1.2793 14.275L2.46235 15.3457L1.71747 15.8811L3.42631 17.8633L11.1818 15.6206L16.6735 11.0195L2.40393 0.529419L0.534424 6.1Z" fill="#763E1A" stroke="#DEDEDE" stroke-opacity="0.75" stroke-width="0.503271" stroke-linecap="round" stroke-linejoin="round"/>
<path d="M35.4413 17.8633L27.6858 15.6206L30.0227 19.1221L26.532 25.8791L31.1473 25.8213H38.0411L35.4413 17.8633Z" fill="#F5841F" stroke="#DEDEDE" stroke-opacity="0.75" stroke-width="0.503271" stroke-linecap="round" stroke-linejoin="round"/>
<path d="M11.1818 15.6206L3.42624 17.8633L0.841064 25.8213H7.72026L12.3356 25.8791L8.84488 19.1221L11.1818 15.6206Z" fill="#F5841F" stroke="#DEDEDE" stroke-opacity="0.75" stroke-width="0.503271" stroke-linecap="round" stroke-linejoin="round"/>
<path d="M21.6974 19.4983L22.194 11.0194L24.4432 4.98584H14.4238L16.6731 11.0194L17.1697 19.4983L17.3595 22.1606L17.3741 28.744H21.4929L21.5075 22.1606L21.6974 19.4983Z" fill="#F5841F" stroke="#DEDEDE" stroke-opacity="0.75" stroke-width="0.503271" stroke-linecap="round" stroke-linejoin="round"/>
</g>
</svg>
