<svg width="26" height="30" viewBox="0 0 26 30" fill="none" xmlns="http://www.w3.org/2000/svg">
<path d="M15.9258 16.9219C13.9219 16.9219 12.1758 17.3906 10.7461 18.1172C12.4336 19.5 13.5234 21.5977 13.5234 23.9414C13.5234 24.5273 13.4531 25.125 13.3125 25.6758H23.2852C25.125 25.6758 25.7812 25.1484 25.7812 24.1172C25.7812 21.0938 21.9961 16.9219 15.9258 16.9219ZM15.9258 14.8242C18.4453 14.8242 20.6133 12.5742 20.6133 9.64453C20.6133 6.75 18.4336 4.60547 15.9258 4.60547C13.418 4.60547 11.2383 6.79688 11.2383 9.66797C11.2383 12.5742 13.418 14.8242 15.9258 14.8242ZM5.95312 29.8945C9.1875 29.8945 11.918 27.1875 11.918 23.9414C11.918 20.6719 9.22266 17.9883 5.95312 17.9883C2.69531 17.9883 0 20.6719 0 23.9414C0 27.2109 2.69531 29.8945 5.95312 29.8945ZM2.94141 24.6562C2.55469 24.6562 2.22656 24.3164 2.22656 23.9414C2.22656 23.5547 2.55469 23.2266 2.94141 23.2266H8.96484C9.36328 23.2266 9.69141 23.5547 9.69141 23.9414C9.69141 24.3164 9.36328 24.6562 8.96484 24.6562H2.94141Z" fill="#DA3F3F"/>
</svg>
