<svg width="134" height="26" viewBox="0 0 134 26" fill="none" xmlns="http://www.w3.org/2000/svg">
<path d="M117.751 13.07C117.065 12.62 116.308 12.3 115.591 11.9C115.126 11.64 114.632 11.41 114.228 11.08C113.542 10.52 113.683 9.41999 114.4 8.93999C115.429 8.25999 117.135 8.63999 117.317 10.03C117.317 10.06 117.347 10.08 117.378 10.08H118.932C118.972 10.08 119.003 10.05 118.993 10.01C118.912 9.04999 118.538 8.24999 117.852 7.73999C117.196 7.24999 116.449 6.98999 115.651 6.98999C111.543 6.98999 111.17 11.3 113.38 12.66C113.633 12.82 115.803 13.9 116.57 14.37C117.337 14.84 117.579 15.7 117.246 16.38C116.943 17 116.156 17.43 115.369 17.38C114.511 17.33 113.844 16.87 113.612 16.15C113.572 16.02 113.552 15.77 113.552 15.66C113.552 15.63 113.521 15.6 113.491 15.6H111.805C111.775 15.6 111.745 15.63 111.745 15.66C111.745 16.87 112.048 17.54 112.875 18.15C113.653 18.73 114.501 18.97 115.379 18.97C117.68 18.97 118.871 17.68 119.114 16.34C119.326 15.03 118.932 13.85 117.751 13.07Z" fill="white"/>
<path d="M44.5572 7.20996H43.8102H42.9926C42.9623 7.20996 42.9421 7.22996 42.932 7.24996L41.5491 11.77C41.5289 11.83 41.4481 11.83 41.428 11.77L40.045 7.24996C40.0349 7.21996 40.0148 7.20996 39.9845 7.20996H39.1668H38.4199H37.4104C37.3801 7.20996 37.3499 7.23996 37.3499 7.26996V18.81C37.3499 18.84 37.3801 18.87 37.4104 18.87H39.0962C39.1265 18.87 39.1567 18.84 39.1567 18.81V10.04C39.1567 9.96996 39.2577 9.95996 39.2779 10.02L40.6709 14.57L40.7718 14.89C40.7819 14.92 40.8021 14.93 40.8324 14.93H42.1245C42.1547 14.93 42.1749 14.91 42.185 14.89L42.286 14.57L43.679 10.02C43.6992 9.94996 43.8001 9.96996 43.8001 10.04V18.81C43.8001 18.84 43.8304 18.87 43.8607 18.87H45.5464C45.5767 18.87 45.607 18.84 45.607 18.81V7.26996C45.607 7.23996 45.5767 7.20996 45.5464 7.20996H44.5572Z" fill="white"/>
<path d="M91.9398 7.20996C91.9095 7.20996 91.8893 7.22996 91.8792 7.24996L90.4963 11.77C90.4761 11.83 90.3953 11.83 90.3751 11.77L88.9922 7.24996C88.9821 7.21996 88.9619 7.20996 88.9317 7.20996H86.3677C86.3374 7.20996 86.3071 7.23996 86.3071 7.26996V18.81C86.3071 18.84 86.3374 18.87 86.3677 18.87H88.0535C88.0837 18.87 88.114 18.84 88.114 18.81V10.04C88.114 9.96996 88.215 9.95996 88.2351 10.02L89.6282 14.57L89.7291 14.89C89.7392 14.92 89.7594 14.93 89.7897 14.93H91.0817C91.112 14.93 91.1322 14.91 91.1423 14.89L91.2433 14.57L92.6363 10.02C92.6565 9.94996 92.7574 9.96996 92.7574 10.04V18.81C92.7574 18.84 92.7877 18.87 92.818 18.87H94.5037C94.534 18.87 94.5643 18.84 94.5643 18.81V7.26996C94.5643 7.23996 94.534 7.20996 94.5037 7.20996H91.9398Z" fill="white"/>
<path d="M70.1966 7.20996H67.0573H65.3715H62.2322C62.2019 7.20996 62.1716 7.23996 62.1716 7.26996V8.70996C62.1716 8.73996 62.2019 8.76996 62.2322 8.76996H65.311V18.81C65.311 18.84 65.3412 18.87 65.3715 18.87H67.0573C67.0876 18.87 67.1178 18.84 67.1178 18.81V8.76996H70.1966C70.2269 8.76996 70.2572 8.73996 70.2572 8.70996V7.26996C70.2572 7.23996 70.237 7.20996 70.1966 7.20996Z" fill="white"/>
<path d="M80.1395 18.87H81.6739C81.7142 18.87 81.7445 18.83 81.7344 18.79L78.5648 7.20998C78.5547 7.17998 78.5345 7.16998 78.5042 7.16998H77.9188H76.8891H76.3037C76.2734 7.16998 76.2532 7.18998 76.2431 7.20998L73.0735 18.79C73.0634 18.83 73.0937 18.87 73.1341 18.87H74.6684C74.6987 18.87 74.7189 18.85 74.729 18.83L75.6475 15.46C75.6576 15.43 75.6778 15.42 75.7081 15.42H79.0998C79.1301 15.42 79.1503 15.44 79.1604 15.46L80.079 18.83C80.089 18.85 80.1193 18.87 80.1395 18.87ZM76.1119 13.77L77.3434 9.25998C77.3636 9.19998 77.4443 9.19998 77.4645 9.25998L78.696 13.77C78.7061 13.81 78.6758 13.85 78.6355 13.85H76.1724C76.1321 13.85 76.1018 13.81 76.1119 13.77Z" fill="white"/>
<path d="M106.304 18.87H107.838C107.879 18.87 107.909 18.83 107.899 18.79L104.729 7.20998C104.719 7.17998 104.699 7.16998 104.669 7.16998H104.083H103.053H102.468C102.438 7.16998 102.418 7.18998 102.407 7.20998L99.2378 18.79C99.2277 18.83 99.258 18.87 99.2984 18.87H100.833C100.863 18.87 100.883 18.85 100.893 18.83L101.812 15.46C101.822 15.43 101.842 15.42 101.872 15.42H105.264C105.294 15.42 105.315 15.44 105.325 15.46L106.243 18.83C106.253 18.85 106.274 18.87 106.304 18.87ZM102.276 13.77L103.508 9.25998C103.528 9.19998 103.609 9.19998 103.629 9.25998L104.86 13.77C104.87 13.81 104.84 13.85 104.8 13.85H102.337C102.296 13.85 102.266 13.81 102.276 13.77Z" fill="white"/>
<path d="M52.4507 17.16V13.58C52.4507 13.55 52.481 13.52 52.5112 13.52H57.0032C57.0335 13.52 57.0638 13.49 57.0638 13.46V12.02C57.0638 11.99 57.0335 11.96 57.0032 11.96H52.5112C52.481 11.96 52.4507 11.93 52.4507 11.9V8.83997C52.4507 8.80997 52.481 8.77997 52.5112 8.77997H57.619C57.6493 8.77997 57.6795 8.74997 57.6795 8.71997V7.27997C57.6795 7.24997 57.6493 7.21997 57.619 7.21997H52.4507H50.7044C50.6741 7.21997 50.6438 7.24997 50.6438 7.27997V8.77997V11.97V13.53V17.23V18.81C50.6438 18.84 50.6741 18.87 50.7044 18.87H52.4507H57.831C57.8612 18.87 57.8915 18.84 57.8915 18.81V17.29C57.8915 17.26 57.8612 17.23 57.831 17.23H52.5012C52.4709 17.22 52.4507 17.2 52.4507 17.16Z" fill="white"/>
<path d="M133.155 18.77L127.32 12.8C127.3 12.78 127.3 12.74 127.32 12.72L132.569 7.31997C132.61 7.27997 132.579 7.21997 132.529 7.21997H130.379C130.359 7.21997 130.349 7.22997 130.338 7.23997L125.887 11.82C125.846 11.86 125.786 11.83 125.786 11.78V7.27997C125.786 7.24997 125.756 7.21997 125.725 7.21997H124.04C124.009 7.21997 123.979 7.24997 123.979 7.27997V18.82C123.979 18.85 124.009 18.88 124.04 18.88H125.725C125.756 18.88 125.786 18.85 125.786 18.82V13.74C125.786 13.69 125.857 13.66 125.887 13.7L130.934 18.86C130.944 18.87 130.964 18.88 130.974 18.88H133.124C133.165 18.87 133.195 18.8 133.155 18.77Z" fill="white"/>
<path d="M25.8321 1L15.6267 8.5L17.5244 4.08L25.8321 1Z" fill="#E17726" stroke="#E17726" stroke-width="0.347368" stroke-linecap="round" stroke-linejoin="round"/>
<path d="M2.29224 1L12.4067 8.57L10.5999 4.08L2.29224 1Z" fill="#E27625" stroke="#E27625" stroke-width="0.347368" stroke-linecap="round" stroke-linejoin="round"/>
<path d="M22.1578 18.39L19.4424 22.51L25.2567 24.1L26.9223 18.48L22.1578 18.39Z" fill="#E27625" stroke="#E27625" stroke-width="0.347368" stroke-linecap="round" stroke-linejoin="round"/>
<path d="M1.21216 18.48L2.86763 24.1L8.67186 22.51L5.96658 18.39L1.21216 18.48Z" fill="#E27625" stroke="#E27625" stroke-width="0.347368" stroke-linecap="round" stroke-linejoin="round"/>
<path d="M8.35874 11.43L6.74365 13.85L12.4974 14.11L12.3056 7.96002L8.35874 11.43Z" fill="#E27625" stroke="#E27625" stroke-width="0.347368" stroke-linecap="round" stroke-linejoin="round"/>
<path d="M19.7654 11.43L15.7579 7.89001L15.6267 14.11L21.3805 13.85L19.7654 11.43Z" fill="#E27625" stroke="#E27625" stroke-width="0.347368" stroke-linecap="round" stroke-linejoin="round"/>
<path d="M8.67163 22.51L12.1542 20.84L9.15616 18.52L8.67163 22.51Z" fill="#E27625" stroke="#E27625" stroke-width="0.347368" stroke-linecap="round" stroke-linejoin="round"/>
<path d="M15.97 20.84L19.4424 22.51L18.968 18.52L15.97 20.84Z" fill="#E27625" stroke="#E27625" stroke-width="0.347368" stroke-linecap="round" stroke-linejoin="round"/>
<path d="M19.4422 22.51L15.9697 20.84L16.2524 23.08L16.2221 24.03L19.4422 22.51Z" fill="#D5BFB2" stroke="#D5BFB2" stroke-width="0.347368" stroke-linecap="round" stroke-linejoin="round"/>
<path d="M8.67139 22.51L11.9016 24.03L11.8814 23.08L12.1539 20.84L8.67139 22.51Z" fill="#D5BFB2" stroke="#D5BFB2" stroke-width="0.347368" stroke-linecap="round" stroke-linejoin="round"/>
<path d="M11.9624 17.04L9.07544 16.2L11.1145 15.27L11.9624 17.04Z" fill="#233447" stroke="#233447" stroke-width="0.347368" stroke-linecap="round" stroke-linejoin="round"/>
<path d="M16.1616 17.04L17.0095 15.27L19.0587 16.2L16.1616 17.04Z" fill="#233447" stroke="#233447" stroke-width="0.347368" stroke-linecap="round" stroke-linejoin="round"/>
<path d="M8.67183 22.51L9.17655 18.39L5.96655 18.48L8.67183 22.51Z" fill="#CC6228" stroke="#CC6228" stroke-width="0.347368" stroke-linecap="round" stroke-linejoin="round"/>
<path d="M18.948 18.39L19.4426 22.51L22.158 18.48L18.948 18.39Z" fill="#CC6228" stroke="#CC6228" stroke-width="0.347368" stroke-linecap="round" stroke-linejoin="round"/>
<path d="M21.3807 13.85L15.627 14.11L16.162 17.04L17.0099 15.27L19.059 16.2L21.3807 13.85Z" fill="#CC6228" stroke="#CC6228" stroke-width="0.347368" stroke-linecap="round" stroke-linejoin="round"/>
<path d="M9.07544 16.2L11.1145 15.27L11.9624 17.04L12.4974 14.11L6.74365 13.85L9.07544 16.2Z" fill="#CC6228" stroke="#CC6228" stroke-width="0.347368" stroke-linecap="round" stroke-linejoin="round"/>
<path d="M6.74341 13.85L9.15595 18.52L9.0752 16.2L6.74341 13.85Z" fill="#E27525" stroke="#E27525" stroke-width="0.347368" stroke-linecap="round" stroke-linejoin="round"/>
<path d="M19.0584 16.2L18.9675 18.52L21.3801 13.85L19.0584 16.2Z" fill="#E27525" stroke="#E27525" stroke-width="0.347368" stroke-linecap="round" stroke-linejoin="round"/>
<path d="M12.4972 14.11L11.9622 17.04L12.6385 20.5L12.7899 15.94L12.4972 14.11Z" fill="#E27525" stroke="#E27525" stroke-width="0.347368" stroke-linecap="round" stroke-linejoin="round"/>
<path d="M15.6261 14.11L15.3435 15.93L15.4848 20.5L16.1611 17.04L15.6261 14.11Z" fill="#E27525" stroke="#E27525" stroke-width="0.347368" stroke-linecap="round" stroke-linejoin="round"/>
<path d="M16.1617 17.04L15.4854 20.5L15.9699 20.84L18.9679 18.52L19.0587 16.2L16.1617 17.04Z" fill="#F5841F" stroke="#F5841F" stroke-width="0.347368" stroke-linecap="round" stroke-linejoin="round"/>
<path d="M9.07544 16.2L9.15619 18.52L12.1542 20.84L12.6387 20.5L11.9624 17.04L9.07544 16.2Z" fill="#F5841F" stroke="#F5841F" stroke-width="0.347368" stroke-linecap="round" stroke-linejoin="round"/>
<path d="M16.2219 24.03L16.2522 23.08L15.9898 22.86H12.1337L11.8814 23.08L11.9016 24.03L8.67139 22.51L9.80195 23.43L12.0934 25H16.0201L18.3216 23.43L19.442 22.51L16.2219 24.03Z" fill="#C0AC9D" stroke="#C0AC9D" stroke-width="0.347368" stroke-linecap="round" stroke-linejoin="round"/>
<path d="M15.97 20.84L15.4855 20.5H12.6389L12.1544 20.84L11.8818 23.08L12.1342 22.86H15.9902L16.2527 23.08L15.97 20.84Z" fill="#161616" stroke="#161616" stroke-width="0.347368" stroke-linecap="round" stroke-linejoin="round"/>
<path d="M26.2659 8.99L27.124 4.85L25.8319 1L15.9697 8.25L19.7652 11.43L25.1253 12.98L26.3063 11.61L25.7915 11.24L26.6091 10.5L25.9833 10.02L26.8009 9.4L26.2659 8.99Z" fill="#763E1A" stroke="#763E1A" stroke-width="0.347368" stroke-linecap="round" stroke-linejoin="round"/>
<path d="M1 4.85L1.86811 8.99L1.31292 9.4L2.14066 10.02L1.51481 10.5L2.33245 11.24L1.81764 11.61L2.99868 12.98L8.35876 11.43L12.1542 8.25L2.29207 1L1 4.85Z" fill="#763E1A" stroke="#763E1A" stroke-width="0.347368" stroke-linecap="round" stroke-linejoin="round"/>
<path d="M25.1256 12.98L19.7655 11.43L21.3806 13.85L18.968 18.52L22.1578 18.48H26.9223L25.1256 12.98Z" fill="#F5841F" stroke="#F5841F" stroke-width="0.347368" stroke-linecap="round" stroke-linejoin="round"/>
<path d="M8.35869 11.43L2.99861 12.98L1.21191 18.48H5.96634L9.15614 18.52L6.7436 13.85L8.35869 11.43Z" fill="#F5841F" stroke="#F5841F" stroke-width="0.347368" stroke-linecap="round" stroke-linejoin="round"/>
<path d="M15.6266 14.11L15.9698 8.25002L17.5243 4.08002H10.5996L12.1541 8.25002L12.4973 14.11L12.6286 15.95L12.6387 20.5H15.4853L15.4954 15.95L15.6266 14.11Z" fill="#F5841F" stroke="#F5841F" stroke-width="0.347368" stroke-linecap="round" stroke-linejoin="round"/>
</svg>
