<svg width="28" height="26" viewBox="0 0 28 26" fill="none" xmlns="http://www.w3.org/2000/svg">
<path d="M25.7701 1L15.5647 8.5L17.4624 4.08L25.7701 1Z" fill="#E17726" stroke="#E17726" stroke-width="0.347368" stroke-linecap="round" stroke-linejoin="round"/>
<path d="M2.23022 1L12.3447 8.57L10.5379 4.08L2.23022 1Z" fill="#E27625" stroke="#E27625" stroke-width="0.347368" stroke-linecap="round" stroke-linejoin="round"/>
<path d="M22.0957 18.39L19.3804 22.51L25.1947 24.1L26.8603 18.48L22.0957 18.39Z" fill="#E27625" stroke="#E27625" stroke-width="0.347368" stroke-linecap="round" stroke-linejoin="round"/>
<path d="M1.1499 18.48L2.80537 24.1L8.6096 22.51L5.90433 18.39L1.1499 18.48Z" fill="#E27625" stroke="#E27625" stroke-width="0.347368" stroke-linecap="round" stroke-linejoin="round"/>
<path d="M8.29673 11.43L6.68164 13.85L12.4354 14.11L12.2436 7.95996L8.29673 11.43Z" fill="#E27625" stroke="#E27625" stroke-width="0.347368" stroke-linecap="round" stroke-linejoin="round"/>
<path d="M19.7034 11.43L15.6959 7.89001L15.5647 14.11L21.3185 13.85L19.7034 11.43Z" fill="#E27625" stroke="#E27625" stroke-width="0.347368" stroke-linecap="round" stroke-linejoin="round"/>
<path d="M8.60962 22.51L12.0922 20.84L9.09415 18.52L8.60962 22.51Z" fill="#E27625" stroke="#E27625" stroke-width="0.347368" stroke-linecap="round" stroke-linejoin="round"/>
<path d="M15.9077 20.84L19.3802 22.51L18.9057 18.52L15.9077 20.84Z" fill="#E27625" stroke="#E27625" stroke-width="0.347368" stroke-linecap="round" stroke-linejoin="round"/>
<path d="M19.3804 22.51L15.908 20.84L16.1906 23.08L16.1603 24.03L19.3804 22.51Z" fill="#D5BFB2" stroke="#D5BFB2" stroke-width="0.347368" stroke-linecap="round" stroke-linejoin="round"/>
<path d="M8.60962 22.51L11.8398 24.03L11.8196 23.08L12.0922 20.84L8.60962 22.51Z" fill="#D5BFB2" stroke="#D5BFB2" stroke-width="0.347368" stroke-linecap="round" stroke-linejoin="round"/>
<path d="M11.9004 17.04L9.01343 16.2L11.0525 15.27L11.9004 17.04Z" fill="#233447" stroke="#233447" stroke-width="0.347368" stroke-linecap="round" stroke-linejoin="round"/>
<path d="M16.0996 17.04L16.9475 15.27L18.9967 16.2L16.0996 17.04Z" fill="#233447" stroke="#233447" stroke-width="0.347368" stroke-linecap="round" stroke-linejoin="round"/>
<path d="M8.60982 22.51L9.11453 18.39L5.90454 18.48L8.60982 22.51Z" fill="#CC6228" stroke="#CC6228" stroke-width="0.347368" stroke-linecap="round" stroke-linejoin="round"/>
<path d="M18.8857 18.39L19.3804 22.51L22.0957 18.48L18.8857 18.39Z" fill="#CC6228" stroke="#CC6228" stroke-width="0.347368" stroke-linecap="round" stroke-linejoin="round"/>
<path d="M21.3185 13.85L15.5647 14.11L16.0997 17.04L16.9476 15.27L18.9968 16.2L21.3185 13.85Z" fill="#CC6228" stroke="#CC6228" stroke-width="0.347368" stroke-linecap="round" stroke-linejoin="round"/>
<path d="M9.01343 16.2L11.0525 15.27L11.9004 17.04L12.4354 14.11L6.68164 13.85L9.01343 16.2Z" fill="#CC6228" stroke="#CC6228" stroke-width="0.347368" stroke-linecap="round" stroke-linejoin="round"/>
<path d="M6.68164 13.85L9.09418 18.52L9.01343 16.2L6.68164 13.85Z" fill="#E27525" stroke="#E27525" stroke-width="0.347368" stroke-linecap="round" stroke-linejoin="round"/>
<path d="M18.9966 16.2L18.9058 18.52L21.3183 13.85L18.9966 16.2Z" fill="#E27525" stroke="#E27525" stroke-width="0.347368" stroke-linecap="round" stroke-linejoin="round"/>
<path d="M12.4354 14.11L11.9004 17.04L12.5767 20.5L12.7281 15.94L12.4354 14.11Z" fill="#E27525" stroke="#E27525" stroke-width="0.347368" stroke-linecap="round" stroke-linejoin="round"/>
<path d="M15.5644 14.11L15.2817 15.93L15.4231 20.5L16.0994 17.04L15.5644 14.11Z" fill="#E27525" stroke="#E27525" stroke-width="0.347368" stroke-linecap="round" stroke-linejoin="round"/>
<path d="M16.0997 17.04L15.4233 20.5L15.9079 20.84L18.9059 18.52L18.9967 16.2L16.0997 17.04Z" fill="#F5841F" stroke="#F5841F" stroke-width="0.347368" stroke-linecap="round" stroke-linejoin="round"/>
<path d="M9.01343 16.2L9.09418 18.52L12.0922 20.84L12.5767 20.5L11.9004 17.04L9.01343 16.2Z" fill="#F5841F" stroke="#F5841F" stroke-width="0.347368" stroke-linecap="round" stroke-linejoin="round"/>
<path d="M16.1602 24.03L16.1905 23.08L15.928 22.86H12.072L11.8196 23.08L11.8398 24.03L8.60962 22.51L9.74018 23.43L12.0316 25H15.9583L18.2598 23.43L19.3803 22.51L16.1602 24.03Z" fill="#C0AC9D" stroke="#C0AC9D" stroke-width="0.347368" stroke-linecap="round" stroke-linejoin="round"/>
<path d="M15.908 20.84L15.4235 20.5H12.5769L12.0924 20.84L11.8198 23.08L12.0722 22.86H15.9282L16.1907 23.08L15.908 20.84Z" fill="#161616" stroke="#161616" stroke-width="0.347368" stroke-linecap="round" stroke-linejoin="round"/>
<path d="M26.2039 8.99L27.0619 4.85L25.7699 1L15.9077 8.25L19.7032 11.43L25.0633 12.98L26.2443 11.61L25.7295 11.24L26.5471 10.5L25.9213 10.02L26.7389 9.4L26.2039 8.99Z" fill="#763E1A" stroke="#763E1A" stroke-width="0.347368" stroke-linecap="round" stroke-linejoin="round"/>
<path d="M0.937988 4.85L1.8061 8.99L1.25091 9.4L2.07865 10.02L1.4528 10.5L2.27044 11.24L1.75563 11.61L2.93666 12.98L8.29675 11.43L12.0922 8.25L2.23006 1L0.937988 4.85Z" fill="#763E1A" stroke="#763E1A" stroke-width="0.347368" stroke-linecap="round" stroke-linejoin="round"/>
<path d="M25.0635 12.9799L19.7035 11.4299L21.3185 13.8499L18.906 18.5199L22.0958 18.4799H26.8603L25.0635 12.9799Z" fill="#F5841F" stroke="#F5841F" stroke-width="0.347368" stroke-linecap="round" stroke-linejoin="round"/>
<path d="M8.29668 11.4299L2.9366 12.9799L1.1499 18.4799H5.90433L9.09413 18.5199L6.68159 13.8499L8.29668 11.4299Z" fill="#F5841F" stroke="#F5841F" stroke-width="0.347368" stroke-linecap="round" stroke-linejoin="round"/>
<path d="M15.5646 14.11L15.9078 8.24996L17.4623 4.07996H10.5376L12.0921 8.24996L12.4353 14.11L12.5666 15.95L12.5767 20.5H15.4232L15.4333 15.95L15.5646 14.11Z" fill="#F5841F" stroke="#F5841F" stroke-width="0.347368" stroke-linecap="round" stroke-linejoin="round"/>
</svg>
